<?xml version="1.0" encoding="UTF-8" standalone="no"?>
<!DOCTYPE svg PUBLIC "-//W3C//DTD SVG 1.1//EN" "http://www.w3.org/Graphics/SVG/1.1/DTD/svg11.dtd">
<svg width="100%" height="100%" viewBox="0 0 419 310" version="1.1" xmlns="http://www.w3.org/2000/svg" xmlns:xlink="http://www.w3.org/1999/xlink" xml:space="preserve" xmlns:serif="http://www.serif.com/" style="fill-rule:evenodd;clip-rule:evenodd;stroke-linecap:round;stroke-linejoin:round;stroke-miterlimit:1.5;">
    <g transform="matrix(1,0,0,1,-219.462,-39.316)">
        <g transform="matrix(1.53342,0,0,1.53342,-118.177,-22.0834)">
            <g transform="matrix(1.01664,0,0,1.05357,-8.18262,-4.84904)">
                <path d="M491.732,61.551C491.732,43.32 485.479,45.058 474.307,43.901C474.296,43.899 474.285,43.899 474.274,43.899C472.066,43.899 250.069,43.899 250.022,43.899C250.022,43.899 250.022,43.899 250.022,43.899C231.119,43.899 225.967,43.311 225.967,61.551L225.967,158.365C225.967,176.605 231.119,176.097 250.022,176.097C250.022,176.097 275.418,175.983 276.786,176.097C300.237,178.064 302.556,231.682 354.484,232.647C408.849,233.658 407.441,182.781 439.728,176.097C441.426,175.746 473.785,176.092 474.284,176.097C474.288,176.097 474.292,176.097 474.296,176.097C485.968,175.798 491.732,176.602 491.732,158.365L491.732,61.551Z" style="fill:rgb(235,235,235);fill-opacity:0.01;stroke:black;stroke-width:2.62px;"/>
            </g>
            <ellipse cx="350.067" cy="185.996" rx="27.537" ry="28.118" style="fill:rgb(196,7,38);stroke:rgb(196,7,38);stroke-width:2.72px;"/>
            <g transform="matrix(1.57395,0,0,3.49371,-1505.68,-118.076)">
                <g transform="matrix(26.4727,0,0,11.9262,1106.31,61.0947)">
                    <path d="M0.531,-0.263L0.671,-0.219C0.649,-0.141 0.614,-0.083 0.564,-0.045C0.514,-0.007 0.45,0.012 0.374,0.012C0.278,0.012 0.2,-0.02 0.139,-0.085C0.078,-0.15 0.047,-0.239 0.047,-0.352C0.047,-0.471 0.078,-0.563 0.14,-0.629C0.201,-0.695 0.282,-0.728 0.382,-0.728C0.47,-0.728 0.541,-0.702 0.596,-0.65C0.628,-0.62 0.653,-0.576 0.669,-0.519L0.526,-0.484C0.517,-0.521 0.5,-0.551 0.473,-0.572C0.446,-0.594 0.413,-0.604 0.375,-0.604C0.322,-0.604 0.279,-0.585 0.246,-0.547C0.213,-0.509 0.196,-0.448 0.196,-0.362C0.196,-0.272 0.213,-0.207 0.245,-0.169C0.278,-0.131 0.32,-0.111 0.372,-0.111C0.41,-0.111 0.444,-0.124 0.471,-0.148C0.499,-0.172 0.519,-0.211 0.531,-0.263Z" style="fill-rule:nonzero;"/>
                </g>
                <g transform="matrix(26.4727,0,0,11.9262,1125.43,61.0947)">
                    <path d="M0.043,-0.354C0.043,-0.426 0.054,-0.488 0.076,-0.537C0.092,-0.574 0.115,-0.606 0.143,-0.635C0.171,-0.664 0.202,-0.686 0.235,-0.7C0.28,-0.719 0.331,-0.728 0.39,-0.728C0.495,-0.728 0.58,-0.695 0.643,-0.63C0.706,-0.564 0.738,-0.473 0.738,-0.357C0.738,-0.241 0.706,-0.151 0.644,-0.086C0.581,-0.02 0.497,0.012 0.392,0.012C0.285,0.012 0.201,-0.02 0.138,-0.085C0.075,-0.15 0.043,-0.24 0.043,-0.354ZM0.192,-0.358C0.192,-0.277 0.211,-0.216 0.249,-0.174C0.286,-0.132 0.333,-0.111 0.391,-0.111C0.449,-0.111 0.496,-0.132 0.533,-0.174C0.57,-0.215 0.588,-0.277 0.588,-0.36C0.588,-0.442 0.57,-0.504 0.534,-0.544C0.498,-0.584 0.451,-0.604 0.391,-0.604C0.332,-0.604 0.284,-0.584 0.247,-0.543C0.211,-0.502 0.192,-0.441 0.192,-0.358Z" style="fill-rule:nonzero;"/>
                </g>
                <g transform="matrix(26.4727,0,0,11.9262,1146.02,61.0947)">
                    <path d="M0.071,0L0.071,-0.716L0.287,-0.716L0.417,-0.228L0.545,-0.716L0.762,-0.716L0.762,0L0.628,0L0.628,-0.563L0.486,0L0.347,0L0.205,-0.563L0.205,0L0.071,0Z" style="fill-rule:nonzero;"/>
                </g>
                <g transform="matrix(26.4727,0,0,11.9262,1168.07,61.0947)">
                    <path d="M0.073,0L0.073,-0.716L0.305,-0.716C0.393,-0.716 0.45,-0.712 0.477,-0.705C0.518,-0.694 0.552,-0.671 0.58,-0.635C0.607,-0.599 0.621,-0.553 0.621,-0.496C0.621,-0.452 0.613,-0.415 0.597,-0.385C0.581,-0.355 0.561,-0.331 0.536,-0.314C0.512,-0.297 0.487,-0.286 0.461,-0.28C0.427,-0.273 0.377,-0.27 0.312,-0.27L0.217,-0.27L0.217,0L0.073,0ZM0.217,-0.595L0.217,-0.392L0.296,-0.392C0.353,-0.392 0.391,-0.395 0.411,-0.403C0.43,-0.41 0.445,-0.422 0.456,-0.438C0.467,-0.454 0.472,-0.472 0.472,-0.494C0.472,-0.52 0.465,-0.541 0.449,-0.558C0.434,-0.575 0.415,-0.586 0.391,-0.59C0.374,-0.593 0.339,-0.595 0.287,-0.595L0.217,-0.595Z" style="fill-rule:nonzero;"/>
                </g>
                <g transform="matrix(26.4727,0,0,11.9262,1185.73,61.0947)">
                    <path d="M0.072,-0.716L0.216,-0.716L0.216,-0.328C0.216,-0.267 0.218,-0.227 0.222,-0.208C0.228,-0.179 0.243,-0.156 0.266,-0.138C0.289,-0.12 0.321,-0.111 0.361,-0.111C0.402,-0.111 0.433,-0.12 0.454,-0.136C0.475,-0.153 0.487,-0.174 0.492,-0.198C0.496,-0.223 0.498,-0.263 0.498,-0.32L0.498,-0.716L0.643,-0.716L0.643,-0.34C0.643,-0.254 0.639,-0.193 0.631,-0.158C0.623,-0.122 0.609,-0.092 0.588,-0.068C0.567,-0.043 0.539,-0.024 0.503,-0.01C0.468,0.005 0.422,0.012 0.366,0.012C0.297,0.012 0.246,0.004 0.21,-0.011C0.175,-0.027 0.147,-0.048 0.126,-0.073C0.106,-0.098 0.092,-0.125 0.086,-0.152C0.076,-0.193 0.072,-0.254 0.072,-0.334L0.072,-0.716Z" style="fill-rule:nonzero;"/>
                </g>
                <g transform="matrix(26.4727,0,0,11.9262,1204.85,61.0947)">
                    <path d="M0.234,0L0.234,-0.595L0.021,-0.595L0.021,-0.716L0.59,-0.716L0.59,-0.595L0.378,-0.595L0.378,0L0.234,0Z" style="fill-rule:nonzero;"/>
                </g>
                <g transform="matrix(26.4727,0,0,11.9262,1221.02,61.0947)">
                    <path d="M0.073,0L0.073,-0.716L0.604,-0.716L0.604,-0.595L0.217,-0.595L0.217,-0.436L0.577,-0.436L0.577,-0.315L0.217,-0.315L0.217,-0.121L0.617,-0.121L0.617,0L0.073,0Z" style="fill-rule:nonzero;"/>
                </g>
                <g transform="matrix(26.4727,0,0,11.9262,1238.67,61.0947)">
                    <path d="M0.073,0L0.073,-0.716L0.377,-0.716C0.454,-0.716 0.51,-0.709 0.544,-0.697C0.579,-0.684 0.607,-0.661 0.627,-0.628C0.648,-0.595 0.659,-0.557 0.659,-0.515C0.659,-0.461 0.643,-0.417 0.611,-0.382C0.58,-0.347 0.533,-0.325 0.47,-0.316C0.501,-0.298 0.527,-0.278 0.547,-0.256C0.567,-0.234 0.595,-0.195 0.629,-0.14L0.717,0L0.544,0L0.439,-0.156C0.402,-0.211 0.377,-0.247 0.363,-0.261C0.35,-0.275 0.335,-0.285 0.32,-0.291C0.305,-0.296 0.28,-0.299 0.247,-0.299L0.218,-0.299L0.218,0L0.073,0ZM0.218,-0.413L0.325,-0.413C0.394,-0.413 0.437,-0.416 0.455,-0.422C0.472,-0.428 0.485,-0.438 0.495,-0.452C0.505,-0.466 0.51,-0.484 0.51,-0.506C0.51,-0.53 0.503,-0.549 0.49,-0.564C0.478,-0.579 0.459,-0.588 0.436,-0.592C0.424,-0.594 0.389,-0.595 0.331,-0.595L0.218,-0.595L0.218,-0.413Z" style="fill-rule:nonzero;"/>
                </g>
                <g transform="matrix(26.4727,0,0,11.9262,1137.92,76.0024)">
                    <path d="M0.073,0L0.073,-0.716L0.377,-0.716C0.454,-0.716 0.51,-0.709 0.544,-0.697C0.579,-0.684 0.607,-0.661 0.627,-0.628C0.648,-0.595 0.659,-0.557 0.659,-0.515C0.659,-0.461 0.643,-0.417 0.611,-0.382C0.58,-0.347 0.533,-0.325 0.47,-0.316C0.501,-0.298 0.527,-0.278 0.547,-0.256C0.567,-0.234 0.595,-0.195 0.629,-0.14L0.717,0L0.544,0L0.439,-0.156C0.402,-0.211 0.377,-0.247 0.363,-0.261C0.35,-0.275 0.335,-0.285 0.32,-0.291C0.305,-0.296 0.28,-0.299 0.247,-0.299L0.218,-0.299L0.218,0L0.073,0ZM0.218,-0.413L0.325,-0.413C0.394,-0.413 0.437,-0.416 0.455,-0.422C0.472,-0.428 0.485,-0.438 0.495,-0.452C0.505,-0.466 0.51,-0.484 0.51,-0.506C0.51,-0.53 0.503,-0.549 0.49,-0.564C0.478,-0.579 0.459,-0.588 0.436,-0.592C0.424,-0.594 0.389,-0.595 0.331,-0.595L0.218,-0.595L0.218,-0.413Z" style="fill-rule:nonzero;"/>
                </g>
                <g transform="matrix(26.4727,0,0,11.9262,1157.04,76.0024)">
                    <path d="M0.073,0L0.073,-0.716L0.604,-0.716L0.604,-0.595L0.217,-0.595L0.217,-0.436L0.577,-0.436L0.577,-0.315L0.217,-0.315L0.217,-0.121L0.617,-0.121L0.617,0L0.073,0Z" style="fill-rule:nonzero;"/>
                </g>
                <g transform="matrix(26.4727,0,0,11.9262,1174.69,76.0024)">
                    <path d="M0.036,-0.233L0.177,-0.247C0.185,-0.199 0.202,-0.165 0.228,-0.143C0.254,-0.12 0.289,-0.109 0.333,-0.109C0.38,-0.109 0.415,-0.119 0.438,-0.139C0.462,-0.159 0.474,-0.182 0.474,-0.208C0.474,-0.225 0.469,-0.239 0.459,-0.251C0.449,-0.263 0.431,-0.273 0.407,-0.282C0.39,-0.288 0.351,-0.299 0.291,-0.313C0.214,-0.333 0.159,-0.356 0.128,-0.384C0.084,-0.424 0.062,-0.472 0.062,-0.528C0.062,-0.565 0.072,-0.599 0.093,-0.631C0.114,-0.662 0.143,-0.687 0.182,-0.703C0.221,-0.72 0.268,-0.728 0.323,-0.728C0.413,-0.728 0.481,-0.708 0.526,-0.669C0.572,-0.63 0.595,-0.577 0.598,-0.511L0.453,-0.505C0.447,-0.542 0.434,-0.568 0.413,-0.584C0.393,-0.6 0.362,-0.608 0.322,-0.608C0.28,-0.608 0.247,-0.6 0.223,-0.583C0.208,-0.571 0.2,-0.557 0.2,-0.538C0.2,-0.521 0.207,-0.507 0.222,-0.495C0.24,-0.479 0.284,-0.463 0.354,-0.447C0.425,-0.43 0.477,-0.413 0.51,-0.395C0.544,-0.378 0.571,-0.353 0.59,-0.323C0.609,-0.292 0.618,-0.254 0.618,-0.208C0.618,-0.167 0.607,-0.129 0.584,-0.093C0.561,-0.057 0.529,-0.031 0.487,-0.013C0.446,0.004 0.394,0.013 0.332,0.013C0.241,0.013 0.172,-0.008 0.123,-0.05C0.075,-0.092 0.046,-0.153 0.036,-0.233Z" style="fill-rule:nonzero;"/>
                </g>
                <g transform="matrix(26.4727,0,0,11.9262,1192.35,76.0024)">
                    <path d="M0.073,0L0.073,-0.716L0.604,-0.716L0.604,-0.595L0.217,-0.595L0.217,-0.436L0.577,-0.436L0.577,-0.315L0.217,-0.315L0.217,-0.121L0.617,-0.121L0.617,0L0.073,0Z" style="fill-rule:nonzero;"/>
                </g>
                <g transform="matrix(26.4727,0,0,11.9262,1210.01,76.0024)">
                    <path d="M0.234,0L0.234,-0.595L0.021,-0.595L0.021,-0.716L0.59,-0.716L0.59,-0.595L0.378,-0.595L0.378,0L0.234,0Z" style="fill-rule:nonzero;"/>
                </g>
            </g>
        </g>
    </g>
</svg>
